#!OML:ASF E:/inclinewalkrobotboard/Project1/Captureday1/Session1/subject1.ASF
:FULLY-SPECIFIED
:DEGREES
338
root 0 0 0 1.9711154004024896 -9.206414494727907 1.4789870694221545
lowerback 0.9165474552849759 -1.6081257128918351 -3.297326531897461
upperback -0.6833721941338489 -2.068152091079398 2.4052349690704586
thorax -0.9620503355740622 -1.0052894848162803 4.304617045024452
lowerneck -30.93791411053292 -2.35699856265425 -7.50694969650317
upperneck 5.837734388588336 -1.1770694360363176 5.64562344238458
head 6.455177390081231 -0.07446398602937994 2.88276779071152
rclavicle -3.1541890701877474E-16 -2.589161001818475E-15
rhumerus -32.53564825055921 -5.021543864814904 -80.03343001183924
rradius 29.869292886114856
rwrist 18.499867250280303
rhand -17.629207605015953 9.973524273958143
rfingers 7.125019999999943
rthumb 8.62200982532529 -19.876433972249995
lclavicle -4.404471125631036E-16 -1.4535701253880999E-15
lhumerus -9.954500576439282 7.104964139766751 88.67921214496258
lradius 61.546629710172155
lwrist -4.606340213852107
lhand -33.44253613123832 17.965786413245077
lfingers 7.125020000000005
lthumb -6.634854962539687 47.621053461035835
rfemur -33.77948011478548 3.878524215374635 17.712299455472138
rtibia 27.17840991193347
rfoot -6.159806319606563 -12.625831675810595
rtoes -6.8173698432179854
lfemur 14.817649636746415 -3.4744293214682433 -29.899906754644547
ltibia 20.30722289751128
lfoot -14.733001759571732 -4.833086072138778
ltoes -6.777462292639753
339
root 0 0 0 2.0888447339705127 -9.342745433348922 1.5928479041512662
lowerback 0.8152853636605162 -1.687680665798033 -3.355490909759962
upperback -0.5993661503403191 -2.18556111937749 2.4461648621802947
thorax -0.8128356954016318 -1.0648601575149907 4.375276328048356
lowerneck -31.86932251387333 -2.411540590176708 -7.540713683853861
upperneck 4.744961938268917 -1.1921641304206663 5.769125624527657
head 6.198939477489265 -0.03234412026124442 2.911490199466387
rclavicle -3.832823448118522E-16 -3.3864011412153922E-15
rhumerus -32.60797781603643 -4.955618115186772 -79.94197713990559
rradius 29.814771963925946
rwrist 18.599809900019988
rhand -17.61923570931677 9.918282793849757
rfingers 7.125019999999945
rthumb 8.630252702427061 -19.947161289248932
lclavicle -6.179359515399453E-16 -1.6696286217212571E-15
lhumerus -9.642427424086549 6.959331282091038 88.34646378524485
lradius 61.817364979146916
lwrist -4.6103633260459365
lhand -33.47170868245962 18.017305355470523
lfingers 7.125020000000004
lthumb -6.658568381004805 47.67500810863717
rfemur -34.454044929004056 4.449032337539486 17.51586527878818
rtibia 23.94558183162703
rfoot -5.558865735183428 -12.539831466633462
rtoes -6.437078572662225
lfemur 19.46614099920386 -3.5393072398943026 -28.73680046037449
ltibia 24.642015546928068
lfoot -10.281576708427586 -8.316610802463783
ltoes -12.361755501000596
340
root 0 0 0 2.169503379554989 -9.435031525021143 1.6716531874127114
lowerback 0.7549906445516013 -1.7407700723901605 -3.3938493010630477
upperback -0.5433417900897071 -2.2640494539996214 2.4780338172984413
thorax -0.7168446043935561 -1.1057888620274723 4.426157033403756
lowerneck -32.478073083865816 -2.4289562021836058 -7.554973082666889
upperneck 4.0305577868502755 -1.1757412825798204 5.837947376626033
head 6.030177023653605 0.005537305771430884 2.92914517399019
rclavicle -1.5752047124962056E-15 -4.010236579417342E-15
rhumerus -32.72679965716444 -5.050451426946431 -79.87000739403602
rradius 29.76345430218777
rwrist 18.775623896868275
rhand -17.566411348064403 9.808241343361413
rfingers 7.125019999999949
rthumb 8.680100277349839 -20.0710106038963
lclavicle -1.177188534093524E-15 -1.8099541897598212E-15
lhumerus -9.049538023984722 7.111179944074903 87.90855289922932
lradius 62.06190855723988
lwrist -4.758272506296784
lhand -33.588786243859175 17.98554836714827
lfingers 7.125020000000004
lthumb -6.768087490654694 47.63935965538633
rfemur -34.530544601055446 4.931723665381126 18.25901541321112
rtibia 22.235116787125808
rfoot -4.799847817123412 -12.149050527859814
rtoes -4.079863404581651
lfemur 19.414502632401774 -2.6016251627364153 -26.378241588094802
ltibia 33.39180024507463
lfoot -4.4495342497898465 -11.97860228920654
ltoes -16.44241010779311
341
root 0 0 0 2.1776507297308467 -9.457849826844338 1.6853433865101124
lowerback 0.7743607625227176 -1.7578124099416033 -3.3832193727736715
upperback -0.5137646797386857 -2.2885656291459675 2.487346158550979
thorax -0.6975906755712025 -1.1197163709906606 4.426206317651561
lowerneck -32.67199238773852 -2.426492003178868 -7.519883271348349
upperneck 3.8639172340870047 -1.1535444710666314 5.801927307006824
head 5.995485287376745 0.01892596418409101 2.911214823706812
rclavicle -2.7824789455756645E-15 -4.2743224802887625E-15
rhumerus -32.834197236416514 -5.254798482002499 -79.84916456578455
rradius 29.73860610159992
rwrist 18.936674358987922
rhand -17.49824800183629 9.700295461908876
rfingers 7.12501999999995
rthumb 8.745347790390547 -20.189724122450677
lclavicle -1.1246146318561224E-15 -1.9521339883113794E-15
lhumerus -8.895129280616908 7.493667335213121 87.85690104397145
lradius 61.9188481127311
lwrist -4.894741104043684
lhand -33.646445993422546 17.874683319801413
lfingers 7.125020000000005
lthumb -6.8234229924003165 47.524284460465054
rfemur -32.34929913181918 5.859138296736118 21.4809097209809
rtibia 19.877234963562483
rfoot -4.393310558254308 -11.20364200991326
rtoes 1.4092864299492596
lfemur 12.617161992198966 -1.508373177110867 -22.195005309352513
ltibia 42.39750540235913
lfoot 3.124632779161214 -15.009470988465965
ltoes -16.871514770423268
342
root 0 0 0 2.098428544071897 -9.412296300278975 1.625129912929536
lowerback 0.8856320911827704 -1.7392289478705187 -3.3098857575470895
upperback -0.5092897105303661 -2.2590159167260757 2.4693140268715554
thorax -0.7620668000554258 -1.1060165197952032 4.362677502773198
lowerneck -32.454013008437244 -2.410088384809614 -7.418123545198508
upperneck 4.301912855844707 -1.126824480562573 5.625808188359342
head 6.115765947059426 0.0021906426382062028 2.8421362889099324
rclavicle -3.3715305436537143E-15 -4.159739498561762E-15
rhumerus -32.90212461435246 -5.533495431610504 -79.8967771759314
rradius 29.7526452800255
rwrist 19.05119242754266
rhand -17.428672268647947 9.614837799325834
rfingers 7.125019999999952
rthumb 8.812942001097817 -20.276050582192088
lclavicle -4.783192142898245E-16 -2.1074064381625804E-15
lhumerus -9.485086632093534 8.08646516786689 88.42659401873962
lradius 61.242504014212585
lwrist -4.973354115233692
lhand -33.59870993613543 17.663549996225562
lfingers 7.125020000000006
lthumb -6.779195559812646 47.310259558555565
rfemur -22.22952286312476 7.023816843779121 28.88908497115522
rtibia 20.670352939090236
rfoot -4.434856801923022 -9.116380404757715
rtoes 8.939133096694185
lfemur 3.2703846186772325 -0.691067517327683 -18.84467567613031
ltibia 49.122928308736874
lfoot 8.521805014095053 -15.774589450164369
ltoes -12.99420740095027
